<svg data-v-423bf9ae="" xmlns="http://www.w3.org/2000/svg" viewBox="0 0 452.9411425915032 60" class="font"><!----><!----><!----><g data-v-423bf9ae="" id="aba3490b-cc3a-478d-9cc4-cdcfd7690ccc" fill="white" transform="matrix(5.882352501188353,0,0,5.882352501188353,-3.882346682002577,-13.117645713009843)"><path d="M5.21 6.02C3.99 5.45 3.07 4.93 3.07 3.89C3.07 2.77 3.78 2.48 4.56 2.48C6.20 2.48 7.35 4.20 7.77 5.66L7.99 5.66L7.99 2.23L7.77 2.23C7.77 2.23 7.63 2.72 7.13 2.72C6.37 2.72 5.74 2.23 4.41 2.23C2.37 2.23 0.74 3.33 0.74 5.24C0.74 7.04 2.10 7.81 3.49 8.47C4.70 9.06 6.06 9.55 6.06 10.63C6.06 11.75 5.26 12.18 4.48 12.18C2.38 12.18 1.61 10.39 0.88 8.46L0.66 8.46L0.66 12.43L0.88 12.43C0.88 12.43 1.18 11.90 1.67 11.90C2.42 11.90 3.16 12.43 4.49 12.43C6.54 12.43 8.44 11.47 8.44 9.28C8.44 7.22 6.59 6.68 5.21 6.02ZM9.42 12.17L17.63 12.17L17.63 8.18L17.40 8.18C17.40 10.37 16.97 11.94 14.03 11.94L13.17 11.94L13.17 7.25L13.64 7.25C14.83 7.25 15.54 7.92 15.54 9.30L15.78 9.30L15.78 5.03L15.54 5.03C15.54 6.51 14.80 7.03 13.69 7.03L13.17 7.03L13.17 2.72L14.22 2.72C16.46 2.72 17.14 3.71 17.14 5.68L17.36 5.68L17.36 2.49L9.42 2.49L9.42 2.72L10.32 2.72L10.32 11.94L9.42 11.94ZM19.87 10.26C19.49 11.35 19.31 11.94 18.14 11.94L18.14 12.17L21.74 12.17L21.74 11.94L21.25 11.94C20.54 11.94 19.99 11.80 19.99 11.09C19.99 10.88 20.10 10.49 20.17 10.28L20.66 8.83L22.97 8.83L24.05 11.94L23.14 11.94L23.14 12.17L27.65 12.17L27.65 11.94L27.06 11.94L23.72 2.34C22.67 2.34 22.46 2.93 22.29 3.40ZM21.83 5.50L22.90 8.61L20.75 8.61ZM36.08 6.02C34.86 5.45 33.94 4.93 33.94 3.89C33.94 2.77 34.65 2.48 35.43 2.48C37.07 2.48 38.22 4.20 38.64 5.66L38.86 5.66L38.86 2.23L38.64 2.23C38.64 2.23 38.50 2.72 38.00 2.72C37.24 2.72 36.61 2.23 35.28 2.23C33.24 2.23 31.61 3.33 31.61 5.24C31.61 7.04 32.97 7.81 34.36 8.47C35.57 9.06 36.93 9.55 36.93 10.63C36.93 11.75 36.13 12.18 35.35 12.18C33.25 12.18 32.48 10.39 31.75 8.46L31.53 8.46L31.53 12.43L31.75 12.43C31.75 12.43 32.05 11.90 32.54 11.90C33.29 11.90 34.03 12.43 35.36 12.43C37.41 12.43 39.31 11.47 39.31 9.28C39.31 7.22 37.46 6.68 36.08 6.02ZM41.13 10.26C40.75 11.35 40.57 11.94 39.41 11.94L39.41 12.17L43.01 12.17L43.01 11.94L42.52 11.94C41.80 11.94 41.26 11.80 41.26 11.09C41.26 10.88 41.37 10.49 41.44 10.28L41.93 8.83L44.24 8.83L45.32 11.94L44.41 11.94L44.41 12.17L48.92 12.17L48.92 11.94L48.33 11.94L44.98 2.34C43.93 2.34 43.72 2.93 43.55 3.40ZM43.09 5.50L44.17 8.61L42.01 8.61ZM49.06 12.17L56.74 12.17L56.74 7.34L56.46 7.34C56.46 10.05 55.40 11.94 53.30 11.94L52.81 11.94L52.81 2.72L53.98 2.72L53.98 2.49L49.06 2.49L49.06 2.72L49.95 2.72L49.95 11.94L49.06 11.94ZM62.38 12.43C65.73 12.43 67.19 9.76 67.19 7.29C67.19 4.83 65.73 2.23 62.38 2.23C59.04 2.23 57.58 4.97 57.58 7.29C57.58 9.76 59.04 12.43 62.38 12.43ZM62.38 12.17C61.28 12.17 60.69 11.19 60.69 7.29C60.69 3.40 61.28 2.49 62.38 2.49C63.49 2.49 64.08 3.40 64.08 7.29C64.08 11.19 63.49 12.17 62.38 12.17ZM68.94 4.17L68.94 9.16C68.94 11.00 68.88 11.90 67.35 11.94L67.13 11.94L67.13 12.17L71.06 12.17L71.06 11.94L70.80 11.94C69.27 11.94 69.22 11.17 69.22 9.17L69.22 4.62L73.36 11.14C73.95 12.08 74.41 12.17 75.08 12.17L75.91 12.17L75.91 5.78C75.91 3.93 75.96 2.76 77.49 2.72L77.66 2.72L77.66 2.49L73.58 2.49L73.58 2.72L74.05 2.72C75.57 2.72 75.63 3.77 75.63 5.77L75.63 9.21L75.57 9.21L72.03 3.51C71.44 2.58 70.98 2.49 70.31 2.49L67.44 2.49L67.44 2.72C68.12 2.72 68.49 3.46 68.70 3.79Z"></path></g><!----><!----></svg>