<svg data-v-fde0c5aa="" xmlns="http://www.w3.org/2000/svg" viewBox="0 0 300 300" class="iconLeftSlogan"><!----><defs data-v-fde0c5aa=""><!----></defs><rect data-v-fde0c5aa="" fill="#f43e43" x="0" y="0" width="300px" height="300px" class="logo-background-square"></rect><defs data-v-fde0c5aa=""><!----></defs><g data-v-fde0c5aa="" id="036b142a-829f-46f1-9cd2-aab239106c27" fill="#fff" transform="matrix(2.2062710000855077,0,0,2.2062710000855077,88.66099407549773,123.82803268566636)"><path d="M5.21 6.02C3.99 5.45 3.07 4.93 3.07 3.89C3.07 2.77 3.78 2.48 4.56 2.48C6.20 2.48 7.35 4.20 7.77 5.66L7.99 5.66L7.99 2.23L7.77 2.23C7.77 2.23 7.63 2.72 7.13 2.72C6.37 2.72 5.74 2.23 4.41 2.23C2.37 2.23 0.74 3.33 0.74 5.24C0.74 7.04 2.10 7.81 3.49 8.47C4.70 9.06 6.06 9.55 6.06 10.63C6.06 11.75 5.26 12.18 4.48 12.18C2.38 12.18 1.61 10.39 0.88 8.46L0.66 8.46L0.66 12.43L0.88 12.43C0.88 12.43 1.18 11.90 1.67 11.90C2.42 11.90 3.16 12.43 4.49 12.43C6.54 12.43 8.44 11.47 8.44 9.28C8.44 7.22 6.59 6.68 5.21 6.02ZM9.42 12.17L17.63 12.17L17.63 8.18L17.40 8.18C17.40 10.37 16.97 11.94 14.03 11.94L13.17 11.94L13.17 7.25L13.64 7.25C14.83 7.25 15.54 7.92 15.54 9.30L15.78 9.30L15.78 5.03L15.54 5.03C15.54 6.51 14.80 7.03 13.69 7.03L13.17 7.03L13.17 2.72L14.22 2.72C16.46 2.72 17.14 3.71 17.14 5.68L17.36 5.68L17.36 2.49L9.42 2.49L9.42 2.72L10.32 2.72L10.32 11.94L9.42 11.94ZM19.87 10.26C19.49 11.35 19.31 11.94 18.14 11.94L18.14 12.17L21.74 12.17L21.74 11.94L21.25 11.94C20.54 11.94 19.99 11.80 19.99 11.09C19.99 10.88 20.10 10.49 20.17 10.28L20.66 8.83L22.97 8.83L24.05 11.94L23.14 11.94L23.14 12.17L27.65 12.17L27.65 11.94L27.06 11.94L23.72 2.34C22.67 2.34 22.46 2.93 22.29 3.40ZM21.83 5.50L22.90 8.61L20.75 8.61ZM36.08 6.02C34.86 5.45 33.94 4.93 33.94 3.89C33.94 2.77 34.65 2.48 35.43 2.48C37.07 2.48 38.22 4.20 38.64 5.66L38.86 5.66L38.86 2.23L38.64 2.23C38.64 2.23 38.50 2.72 38.00 2.72C37.24 2.72 36.61 2.23 35.28 2.23C33.24 2.23 31.61 3.33 31.61 5.24C31.61 7.04 32.97 7.81 34.36 8.47C35.57 9.06 36.93 9.55 36.93 10.63C36.93 11.75 36.13 12.18 35.35 12.18C33.25 12.18 32.48 10.39 31.75 8.46L31.53 8.46L31.53 12.43L31.75 12.43C31.75 12.43 32.05 11.90 32.54 11.90C33.29 11.90 34.03 12.43 35.36 12.43C37.41 12.43 39.31 11.47 39.31 9.28C39.31 7.22 37.46 6.68 36.08 6.02ZM41.13 10.26C40.75 11.35 40.57 11.94 39.41 11.94L39.41 12.17L43.01 12.17L43.01 11.94L42.52 11.94C41.80 11.94 41.26 11.80 41.26 11.09C41.26 10.88 41.37 10.49 41.44 10.28L41.93 8.83L44.24 8.83L45.32 11.94L44.41 11.94L44.41 12.17L48.92 12.17L48.92 11.94L48.33 11.94L44.98 2.34C43.93 2.34 43.72 2.93 43.55 3.40ZM43.09 5.50L44.17 8.61L42.01 8.61ZM49.06 12.17L56.74 12.17L56.74 7.34L56.46 7.34C56.46 10.05 55.40 11.94 53.30 11.94L52.81 11.94L52.81 2.72L53.98 2.72L53.98 2.49L49.06 2.49L49.06 2.72L49.95 2.72L49.95 11.94L49.06 11.94ZM62.38 12.43C65.73 12.43 67.19 9.76 67.19 7.29C67.19 4.83 65.73 2.23 62.38 2.23C59.04 2.23 57.58 4.97 57.58 7.29C57.58 9.76 59.04 12.43 62.38 12.43ZM62.38 12.17C61.28 12.17 60.69 11.19 60.69 7.29C60.69 3.40 61.28 2.49 62.38 2.49C63.49 2.49 64.08 3.40 64.08 7.29C64.08 11.19 63.49 12.17 62.38 12.17ZM68.94 4.17L68.94 9.16C68.94 11.00 68.88 11.90 67.35 11.94L67.13 11.94L67.13 12.17L71.06 12.17L71.06 11.94L70.80 11.94C69.27 11.94 69.22 11.17 69.22 9.17L69.22 4.62L73.36 11.14C73.95 12.08 74.41 12.17 75.08 12.17L75.91 12.17L75.91 5.78C75.91 3.93 75.96 2.76 77.49 2.72L77.66 2.72L77.66 2.49L73.58 2.49L73.58 2.72L74.05 2.72C75.57 2.72 75.63 3.77 75.63 5.77L75.63 9.21L75.57 9.21L72.03 3.51C71.44 2.58 70.98 2.49 70.31 2.49L67.44 2.49L67.44 2.72C68.12 2.72 68.49 3.46 68.70 3.79Z"></path></g><defs data-v-fde0c5aa=""><!----></defs><g data-v-fde0c5aa="" id="22d599c2-2c42-4b86-8472-e0d858a9f0db" stroke="none" fill="#fff" transform="matrix(0.3029970040278851,0,0,0.3029970040278851,33.091667961411666,124.24525234594608)"><path d="M140.3 127.9c-1.8-1.4-3.6-3-5.3-4.6-4.9-4.8-9.2-10.4-12.8-16.8l-4.4-7.8-4.4 7.8c-3.6 6.4-7.9 12-12.8 16.8-1.7 1.7-3.5 3.2-5.3 4.6l-5.1 3.9 5.1 4c1.8 1.4 3.6 3 5.3 4.6 4.9 4.8 9.2 10.4 12.8 16.8l4.4 7.8 4.4-7.8c3.6-6.4 7.9-12 12.8-16.8 1.7-1.6 3.4-3.2 5.3-4.6l5-3.9-5-4zm-12.3 5.4c-3.7 3.6-7.1 7.7-10.2 12.1-3.1-4.4-6.5-8.5-10.2-12.1-.5-.5-1-.9-1.5-1.4.5-.5 1-.9 1.5-1.4 3.7-3.6 7.1-7.7 10.2-12.1 3.1 4.4 6.5 8.5 10.2 12.1.5.5 1 .9 1.5 1.4-.5.4-1 .9-1.5 1.4zM103.2 56.4c-4.7-2.7-9.1-6-13.1-9.9-7.9-7.7-14.2-17.6-18.7-29.3L66.8 5l-4.7 12.2c-4.5 11.7-10.8 21.6-18.7 29.3-3.9 3.8-8.3 7.2-13.1 9.9l-7.5 4.3 7.5 4.3c4.8 2.8 9.2 6.1 13.1 9.9 7.9 7.7 14.2 17.6 18.7 29.3l4.7 12.2 4.7-12.2C76 92.5 82.3 82.6 90.2 74.9c4-3.8 8.4-7.2 13.1-9.9l7.5-4.3-7.6-4.3zm-20 11.4c-6.5 6.3-12 13.8-16.4 22.4-4.4-8.6-9.9-16.1-16.4-22.4-2.6-2.5-5.4-4.9-8.4-7 3-2.2 5.8-4.5 8.4-7.1 6.5-6.3 12-13.8 16.4-22.4 4.4 8.6 9.9 16.1 16.4 22.4 2.6 2.6 5.4 4.9 8.4 7-3 2.1-5.8 4.5-8.4 7.1z"></path></g><defs data-v-fde0c5aa=""><!----></defs><g data-v-fde0c5aa="" id="36f52283-a747-4013-97c1-a5176b26cdad" fill="#fff" transform="matrix(0.38361265589973637,0,0,0.38361265589973637,89.81024286412311,159.07306312240266)"><path d="M0.80 15.68L0.80 14.59L1.64 14.59L1.64 6.97L0.80 6.97L0.80 5.88L4.76 5.88Q5.46 5.88 6.00 6.08Q6.54 6.27 6.91 6.61Q7.28 6.94 7.47 7.41Q7.66 7.88 7.66 8.43L7.66 8.43L7.66 8.60Q7.66 9.00 7.53 9.34Q7.41 9.67 7.18 9.94Q6.96 10.21 6.66 10.39Q6.36 10.58 6.01 10.68L6.01 10.68L6.01 10.85Q6.71 11.05 7.18 11.60Q7.66 12.15 7.66 12.95L7.66 12.95L7.66 13.12Q7.66 13.66 7.47 14.13Q7.28 14.60 6.91 14.95Q6.54 15.29 6.00 15.48Q5.46 15.68 4.76 15.68L4.76 15.68L0.80 15.68ZM2.81 11.31L2.81 14.59L4.68 14.59Q5.50 14.59 6.02 14.17Q6.54 13.76 6.54 13.03L6.54 13.03L6.54 12.95Q6.54 12.19 6.05 11.75Q5.56 11.31 4.72 11.31L4.72 11.31L2.81 11.31ZM2.81 6.97L2.81 10.22L4.72 10.22Q5.56 10.22 6.05 9.79Q6.54 9.35 6.54 8.60L6.54 8.60L6.54 8.51Q6.54 7.80 6.02 7.38Q5.50 6.97 4.68 6.97L4.68 6.97L2.81 6.97ZM16.88 15.68L16.88 5.88L22.82 5.88L22.82 6.97L18.06 6.97L18.06 10.22L22.74 10.22L22.74 11.31L18.06 11.31L18.06 14.59L22.90 14.59L22.90 15.68L16.88 15.68ZM38.23 15.68L37.52 13.24L33.32 13.24L32.61 15.68L31.35 15.68L34.31 5.88L36.53 5.88L39.49 15.68L38.23 15.68ZM35.50 6.38L35.34 6.38L33.64 12.15L37.20 12.15L35.50 6.38ZM47.63 5.88L48.80 5.88L48.80 12.38Q48.80 13.57 49.36 14.17Q49.91 14.78 50.99 14.78L50.99 14.78Q52.07 14.78 52.62 14.17Q53.17 13.57 53.17 12.38L53.17 12.38L53.17 5.88L54.35 5.88L54.35 12.38Q54.35 14.08 53.45 14.98Q52.56 15.88 50.99 15.88L50.99 15.88Q49.42 15.88 48.52 14.98Q47.63 14.08 47.63 12.38L47.63 12.38L47.63 5.88ZM63.11 6.97L63.11 5.88L70 5.88L70 6.97L67.14 6.97L67.14 15.68L65.97 15.68L65.97 6.97L63.11 6.97ZM81.54 15.68L81.54 12.24L81.28 12.24L78.22 5.88L79.53 5.88L82.04 11.23L82.21 11.23L84.71 5.88L86.03 5.88L82.96 12.24L82.71 12.24L82.71 15.68L81.54 15.68ZM116.07 15.68L115.36 13.24L111.16 13.24L110.45 15.68L109.19 15.68L112.15 5.88L114.37 5.88L117.33 15.68L116.07 15.68ZM113.34 6.38L113.18 6.38L111.48 12.15L115.04 12.15L113.34 6.38ZM127.92 5.88L130.75 15.18L130.91 15.18L130.91 5.88L132.09 5.88L132.09 15.68L129.74 15.68L126.91 6.38L126.74 6.38L126.74 15.68L125.57 15.68L125.57 5.88L127.92 5.88ZM141.13 6.97L141.13 5.88L144.35 5.88Q146.17 5.88 147.01 6.75Q147.85 7.62 147.85 9.52L147.85 9.52L147.85 12.04Q147.85 13.94 147.01 14.81Q146.17 15.68 144.35 15.68L144.35 15.68L141.13 15.68L141.13 14.57L141.97 14.57L141.97 6.97L141.13 6.97ZM143.15 14.59L144.19 14.59Q144.83 14.59 145.30 14.46Q145.77 14.34 146.08 14.04Q146.38 13.73 146.53 13.23Q146.68 12.73 146.68 11.96L146.68 11.96L146.68 9.60Q146.68 8.83 146.53 8.33Q146.38 7.83 146.08 7.53Q145.77 7.22 145.30 7.10Q144.83 6.97 144.19 6.97L144.19 6.97L143.15 6.97L143.15 14.59ZM172.56 15.68L172.56 5.88L178.50 5.88L178.50 6.97L173.74 6.97L173.74 10.22L178.42 10.22L178.42 11.31L173.74 11.31L173.74 14.59L178.58 14.59L178.58 15.68L172.56 15.68ZM188.03 15.68L188.03 5.88L189.21 5.88L189.21 14.59L194.33 14.59L194.33 15.68L188.03 15.68ZM203.70 15.68L203.70 5.88L209.64 5.88L209.64 6.97L204.88 6.97L204.88 10.22L209.55 10.22L209.55 11.31L204.88 11.31L204.88 14.59L209.72 14.59L209.72 15.68L203.70 15.68ZM221.30 12.07L221.30 10.98L225.67 10.98L225.67 15.68L224.57 15.68L224.57 14.50L224.41 14.50Q224.17 15.12 223.57 15.50Q222.96 15.88 222.17 15.88L222.17 15.88Q220.58 15.88 219.68 14.85Q218.78 13.83 218.78 11.87L218.78 11.87L218.78 9.69Q218.78 7.78 219.69 6.73Q220.60 5.68 222.22 5.68L222.22 5.68Q223.06 5.68 223.71 5.96Q224.35 6.23 224.78 6.71Q225.22 7.20 225.44 7.85Q225.67 8.50 225.67 9.24L225.67 9.24L225.67 9.41L224.49 9.41L224.49 9.24Q224.49 8.76 224.36 8.32Q224.22 7.87 223.95 7.53Q223.68 7.18 223.25 6.98Q222.82 6.78 222.22 6.78L222.22 6.78Q221.09 6.78 220.52 7.60Q219.95 8.43 219.95 9.77L219.95 9.77L219.95 11.79Q219.95 13.23 220.52 14.01Q221.09 14.78 222.25 14.78L222.25 14.78Q223.30 14.78 223.90 14.11Q224.49 13.44 224.49 12.24L224.49 12.24L224.49 12.07L221.30 12.07ZM240.62 15.68L239.90 13.24L235.70 13.24L234.99 15.68L233.73 15.68L236.70 5.88L238.91 5.88L241.88 15.68L240.62 15.68ZM237.89 6.38L237.72 6.38L236.03 12.15L239.58 12.15L237.89 6.38ZM252.46 5.88L255.29 15.18L255.46 15.18L255.46 5.88L256.63 5.88L256.63 15.68L254.28 15.68L251.45 6.38L251.29 6.38L251.29 15.68L250.11 15.68L250.11 5.88L252.46 5.88ZM269.00 14.78L269.00 14.78Q269.60 14.78 270.03 14.58Q270.45 14.38 270.73 14.04Q271.00 13.69 271.13 13.25Q271.26 12.81 271.26 12.32L271.26 12.32L271.26 12.15L272.44 12.15L272.44 12.32Q272.44 13.06 272.22 13.71Q271.99 14.36 271.56 14.85Q271.12 15.33 270.48 15.60Q269.84 15.88 269.00 15.88L269.00 15.88Q267.37 15.88 266.46 14.85Q265.55 13.83 265.55 11.87L265.55 11.87L265.55 9.69Q265.55 7.78 266.46 6.73Q267.37 5.68 269.00 5.68L269.00 5.68Q269.84 5.68 270.48 5.96Q271.12 6.23 271.56 6.71Q271.99 7.20 272.22 7.85Q272.44 8.50 272.44 9.24L272.44 9.24L272.44 9.41L271.26 9.41L271.26 9.24Q271.25 8.76 271.12 8.32Q270.98 7.87 270.71 7.53Q270.44 7.18 270.02 6.98Q269.60 6.78 269.00 6.78L269.00 6.78Q267.86 6.78 267.30 7.60Q266.73 8.43 266.73 9.77L266.73 9.77L266.73 11.79Q266.73 13.23 267.30 14.01Q267.86 14.78 269.00 14.78ZM281.54 15.68L281.54 5.88L287.48 5.88L287.48 6.97L282.72 6.97L282.72 10.22L287.39 10.22L287.39 11.31L282.72 11.31L282.72 14.59L287.56 14.59L287.56 15.68L281.54 15.68ZM318.71 12.15L318.71 15.68L317.53 15.68L317.53 12.40Q317.53 12.04 317.37 11.84Q317.20 11.65 316.78 11.65L316.78 11.65L313.73 11.65L313.73 15.68L312.55 15.68L312.55 5.88L316.05 5.88Q316.81 5.88 317.37 6.10Q317.93 6.31 318.30 6.68Q318.67 7.04 318.86 7.53Q319.05 8.01 319.05 8.54L319.05 8.54L319.05 8.96Q319.05 9.51 318.75 10.05Q318.44 10.60 317.81 10.89L317.81 10.89L317.81 11.06Q318.23 11.13 318.47 11.40Q318.71 11.66 318.71 12.15L318.71 12.15ZM313.73 6.97L313.73 10.56L315.91 10.56Q316.90 10.56 317.39 10.13Q317.87 9.70 317.87 8.88L317.87 8.88L317.87 8.62Q317.87 7.88 317.39 7.43Q316.90 6.97 315.91 6.97L315.91 6.97L313.73 6.97ZM328.24 15.68L328.24 5.88L334.18 5.88L334.18 6.97L329.42 6.97L329.42 10.22L334.10 10.22L334.10 11.31L329.42 11.31L329.42 14.59L334.26 14.59L334.26 15.68L328.24 15.68ZM343.52 6.97L343.52 5.88L346.74 5.88Q348.56 5.88 349.40 6.75Q350.24 7.62 350.24 9.52L350.24 9.52L350.24 12.04Q350.24 13.94 349.40 14.81Q348.56 15.68 346.74 15.68L346.74 15.68L343.52 15.68L343.52 14.57L344.36 14.57L344.36 6.97L343.52 6.97ZM345.53 14.59L346.57 14.59Q347.21 14.59 347.68 14.46Q348.15 14.34 348.46 14.04Q348.77 13.73 348.91 13.23Q349.06 12.73 349.06 11.96L349.06 11.96L349.06 9.60Q349.06 8.83 348.91 8.33Q348.77 7.83 348.46 7.53Q348.15 7.22 347.68 7.10Q347.21 6.97 346.57 6.97L346.57 6.97L345.53 6.97L345.53 14.59ZM359.38 15.68L359.38 5.88L365.32 5.88L365.32 6.97L360.56 6.97L360.56 10.22L365.23 10.22L365.23 11.31L360.56 11.31L360.56 14.59L365.40 14.59L365.40 15.68L359.38 15.68ZM374.96 15.68L374.96 5.88L380.98 5.88L380.98 6.97L376.14 6.97L376.14 10.22L380.90 10.22L380.90 11.31L376.14 11.31L376.14 15.68L374.96 15.68ZM390.38 6.97L390.38 5.88L396.59 5.88L396.59 6.97L394.07 6.97L394.07 14.59L396.59 14.59L396.59 15.68L390.38 15.68L390.38 14.59L392.90 14.59L392.90 6.97L390.38 6.97ZM408.14 5.88L410.97 15.18L411.14 15.18L411.14 5.88L412.31 5.88L412.31 15.68L409.96 15.68L407.13 6.38L406.97 6.38L406.97 15.68L405.79 15.68L405.79 5.88L408.14 5.88ZM421.65 15.68L421.65 5.88L427.59 5.88L427.59 6.97L422.83 6.97L422.83 10.22L427.50 10.22L427.50 11.31L422.83 11.31L422.83 14.59L427.67 14.59L427.67 15.68L421.65 15.68ZM436.93 6.97L436.93 5.88L440.15 5.88Q441.97 5.88 442.81 6.75Q443.65 7.62 443.65 9.52L443.65 9.52L443.65 12.04Q443.65 13.94 442.81 14.81Q441.97 15.68 440.15 15.68L440.15 15.68L436.93 15.68L436.93 14.57L437.77 14.57L437.77 6.97L436.93 6.97ZM438.94 14.59L439.98 14.59Q440.62 14.59 441.09 14.46Q441.56 14.34 441.87 14.04Q442.18 13.73 442.32 13.23Q442.47 12.73 442.47 11.96L442.47 11.96L442.47 9.60Q442.47 8.83 442.32 8.33Q442.18 7.83 441.87 7.53Q441.56 7.22 441.09 7.10Q440.62 6.97 439.98 6.97L439.98 6.97L438.94 6.97L438.94 14.59Z"></path></g></svg>